/* XPM */
static const char *zombie3_0[] = {
/* columns rows colors chars-per-pixel */
"128 128 12 1 ",
"  c #010000",
". c #010102",
"X c #251914",
"o c #201D31",
"O c #421020",
"+ c #57312B",
"@ c #672D35",
"# c #AB8760",
"$ c #D1B28A",
"% c #FFF3BF",
"& c #B8C0FD",
"* c None",
/* pixels */
"********************************************************************************************************************************",
"********************************************************************************************************************************",
"********************************************************************************************************************************",
"********************************************************************************************************************************",
"********************************************************************************************************************************",
"********************************************************************************************************************************",
"********************************************************************************************************************************",
"********************************************************************************************************************************",
"********************************************************************************************************************************",
"********************************************************************************************************************************",
"********************************************************************************************************************************",
"********************************************************************************************************************************",
"********************************************************************************************************************************",
"********************************************************************************************************************************",
"********************************************************************************************************************************",
"********************************************************************************************************************************",
"********************************************************************************************************************************",
"********************************************************************************************************************************",
"********************************************************************************************************************************",
"********************************************************************************************************************************",
"********************************************************************************************************************************",
"********************************************************************************************************************************",
"********************************************************************************************************************************",
"********************************************************************************************************************************",
"********************************************************************************************************************************",
"********************************************************************************************************************************",
"********************************************************************************************************************************",
"********************************************************************************************************************************",
"********************************************************************************************************************************",
"********************************************************************************************************************************",
"********************************************************************************************************************************",
"********************************************************************************************************************************",
"********************************************************************************************************************************",
"********************************************************************************************************************************",
"********************************************************************************************************************************",
"********************************************************************************************************************************",
"********************************************************************************************************************************",
"********************************************************************************************************************************",
"********************************************************************************************************************************",
"********************************************************************************************************************************",
"********************************************************************************************************************************",
"********************************************************************************************************************************",
"********************************************************************************************************************************",
"********************************************************************************************************************************",
"********************************************************************************************************************************",
"********************************************************************************************************************************",
"********************************************************************************************************************************",
"********************************************************************************************************************************",
"********************************************************************************************************************************",
"********************************************************************************************************************************",
"********************************************************************************************************************************",
"********************************************************************************************************************************",
"********************************************************************************************************************************",
"********************************************************************************************************************************",
"********************************************************************************************************************************",
"********************************************************************************************************************************",
"********************************************************************************************************************************",
"********************************************************************************************************************************",
"********************************************************************************************************************************",
"********************************************************************************************************************************",
"********************************************************************************************************************************",
"********************************************************************************************************************************",
"******************************************************************    **********************************************************",
"****************************************************************  $$$$  ********************************************************",
"*************************************************************** $$$$$$$$ *******************************************************",
"************************************************************** $$$$$$$$$$ ******************************************************",
"************************************************************** $##$$$$$$$ ******************************************************",
"************************************************************** #$$#$$$$$$ ******************************************************",
"************************************************************** $$$#$$$$$$ ******************************************************",
"************************************************************** $$$$$###$$ ******************************************************",
"************************************************************** $#$$$@%%#$ ******************************************************",
"************************************************************** $#$$$$@@# *******************************************************",
"************************************************************* $$#$$$$$$# *******************************************************",
"************************************************************* $###$$$$$$ *******************************************************",
"************************************************************ $$####$$OO ********************************************************",
"*********************************************************** $$### ##OOO ********************************************************",
"*********************************************************  $$### *  ### ********************************************************",
"******************************************************   ######## **   *********************************************************",
"****************************************************  $#######$$##  ************************************************************",
"*************************************************** $$$$$$$$$$$$$$$$ ***********************************************************",
"************************************************** $$$$$$$$$$$$$$$$$$ **********************************************************",
"************************************************** $$$$$##$$$$$$$$$#$ **********************************************************",
"************************************************** $$$$###$$$$$$$$$## **********************************************************",
"************************************************** $$$###$$$$$$$$$$$# **********************************************************",
"************************************************* $$$## ##$$$$$$$$$$# **********************************************************",
"************************************************* $$## ####$$$$$$$$$## *********************************************************",
"************************************************* $## #######$$$##$### *********************************************************",
"************************************************ $$$# ####$$$$$$##$$$## ********************************************************",
"************************************************ $$## ##$$$$$$$$$#$$$## ********************************************************",
"************************************************ $$# * #$$$$$$$$$##$$### *******************************************************",
"*********************************************** $$$# * ##$$$##$$$##$$ ## *******************************************************",
"*********************************************** $$## ** #$$$###$$$#$# ### ******************************************************",
"*********************************************** $$## ** ##$##$$$$$#$## ## ******************************************************",
"*********************************************** $$## *** ####$$$$$#$$# ##$ *****************************************************",
"*********************************************** $$# **** ##$##$$$$##$$ ##$& ****************************************************",
"*********************************************** $$# **** #$$$##$$$##$$$ #&& ****************************************************",
"*********************************************** $$# *** ++++$$$$$$$#$$+ o&&& ***************************************************",
"********************************************** $$# **** +++++++++++++++ oo&$ ***************************************************",
"********************************************** $$# *** +++++++++++++++++ #$$ ***************************************************",
"********************************************** $$# *** +++++++++++++++++ #$$$ **************************************************",
"********************************************** $$# *** ++++++XX++++++XX++ #$$ **************************************************",
"********************************************** $$## ** ++++++XX+++++XXX++ ##$ **************************************************",
"********************************************** $$$$ ** +++++++XX+++XXX+++ ##$$ *************************************************",
"********************************************** $$$$$ * ++++XXXXX++XXX+++++   $ *************************************************",
"*********************************************** $$$$ * ++++XXXXXXX XXXX+++ **  *************************************************",
"*********************************************** $$$ ** ++++++XX   XXXXX+++ *****************************************************",
"************************************************  $$ ** +++++X ** XXXX++++ *****************************************************",
"**************************************************   ** ++++XX *** XXX+++++ ****************************************************",
"******************************************************* $+++XX **** XXX++++ ****************************************************",
"******************************************************* $$++X ****** XXX++$ ****************************************************",
"****************************************************** $$$++$ ******* XXX$$$ ***************************************************",
"****************************************************** $$$$$$ ******** X$$$$ ***************************************************",
"****************************************************** $$$$$ ********** $$$$ ***************************************************",
"***************************************************** $$$$$$ ********** $$$$ ***************************************************",
"***************************************************** $##$$ ********** ##$$$ ***************************************************",
"**************************************************** $$##  *********** ###$ ****************************************************",
"**************************************************** $$## ************ ##$$ ****************************************************",
"**************************************************** $$# ************* ##$$ ****************************************************",
"**************************************************** $$# ************* ##$ *****************************************************",
"*************************************************** #$# *************** #$ *****************************************************",
"*************************************************** ### *************** #$ *****************************************************",
"*************************************************** ## **************** #$ *****************************************************",
"************************************************** ### **************** #$ *****************************************************",
"************************************************** ### **************** #$$ ****************************************************",
"************************************************** ### **************** ##$ ****************************************************",
"************************************************** #$$$ *************** #### ***************************************************",
"************************************************* ##$$$$   ************ ##$$$    ***********************************************",
"************************************************* ##$$$$$$$ *********** #$$$$$$$$ **********************************************"
};
